# xmcd
#
# Track frame offsets: 
#        150
#        24122
#        45718
#        65425
#        86560
#        113712
#        136072
#        161130
#        177369
#        199410
#        219438
#        243104
#        263497
#
# Disc length: 3695 seconds
#
# Revision: 0
# Processed by: cddbd v1.5.2PL0 Copyright (c) Steve Scherf et al.
# Submitted via: ExactAudioCopyFreeDBPlugin 1.0
#
DISCID=a90e6d0d
DTITLE=群星 - 聆听女人往事Cd2
DYEAR=2014
DGENRE=Acid
TTITLE0=古璇 - 女人花
TTITLE1=孙露 - 浪人情歌
TTITLE2=雷婷 - 你怎么舍得我难过
TTITLE3=晓花 - 无所谓
TTITLE4=童丽 - 如果云知道
TTITLE5=孙露 - 我可以抱你吗
TTITLE6=张伟伽 - 海浪
TTITLE7=王雅洁 - 独角戏
TTITLE8=苏曼 - 橄榄树
TTITLE9=雷婷 - 痛苦的人
TTITLE10=任雪晨 - 爱我你怕了吗
TTITLE11=周虹 - 找一个字代替
TTITLE12=张玮伽 - 我是不是你最疼爱的人
EXTD=
EXTT0=
EXTT1=
EXTT2=
EXTT3=
EXTT4=
EXTT5=
EXTT6=
EXTT7=
EXTT8=
EXTT9=
EXTT10=
EXTT11=
EXTT12=
PLAYORDER=
